<svg width="5" height="5" viewBox="0 0 5 5" fill="none" xmlns="http://www.w3.org/2000/svg">
<path d="M1.80486 0C2.28354 0 2.74261 0.190154 3.08109 0.528631C3.41956 0.867108 3.60972 1.32618 3.60972 1.80486C3.60972 2.25191 3.44589 2.66286 3.17655 2.97941L3.25152 3.05438H3.47088L4.85924 4.44273L4.44273 4.85924L3.05438 3.47088V3.25152L2.97941 3.17655C2.66286 3.44589 2.25191 3.60972 1.80486 3.60972C1.32618 3.60972 0.867108 3.41956 0.528631 3.08109C0.190154 2.74261 0 2.28354 0 1.80486C0 1.32618 0.190154 0.867108 0.528631 0.528631C0.867108 0.190154 1.32618 0 1.80486 0ZM1.80486 0.555341C1.11068 0.555341 0.555341 1.11068 0.555341 1.80486C0.555341 2.49904 1.11068 3.05438 1.80486 3.05438C2.49904 3.05438 3.05438 2.49904 3.05438 1.80486C3.05438 1.11068 2.49904 0.555341 1.80486 0.555341Z" fill="black"/>
</svg>
